<?xml version="1.0" standalone="no"?>
<!DOCTYPE svg PUBLIC "-//W3C//DTD SVG 20010904//EN"
 "http://www.w3.org/TR/2001/REC-SVG-20010904/DTD/svg10.dtd">
<svg version="1.0" xmlns="http://www.w3.org/2000/svg"
 width="96.000000pt" height="96.000000pt" viewBox="0 0 96.000000 96.000000"
 preserveAspectRatio="xMidYMid meet">
<metadata>
Created by potrace 1.14, written by Peter Selinger 2001-2017
</metadata>
<g transform="translate(0.000000,96.000000) scale(0.100000,-0.100000)"
fill="#000000" stroke="none">
<path d="M0 480 l0 -480 480 0 480 0 0 480 0 480 -480 0 -480 0 0 -480z m808
333 c-1 -33 -2 -38 -5 -18 -3 24 -12 34 -41 47 l-37 17 43 0 42 1 -2 -47z
m-231 20 c29 -9 53 -20 53 -25 0 -9 -32 -4 -84 13 -16 5 -42 9 -57 9 -27 0
-115 -20 -151 -35 -11 -4 -18 -3 -18 4 0 6 1 11 3 11 1 0 27 9 57 20 68 24
127 25 197 3z m-302 -19 c9 -4 20 -17 25 -30 5 -12 19 -24 32 -26 15 -2 24
-11 26 -25 3 -20 -1 -22 -72 -22 -58 0 -76 3 -76 14 0 7 -2 20 -5 27 -6 15 30
68 45 68 5 0 16 -3 25 -6z m476 -17 c-10 -9 -11 -8 -5 6 3 10 9 15 12 12 3 -3
0 -11 -7 -18z m-58 -4 c-7 -2 -19 -2 -25 0 -7 3 -2 5 12 5 14 0 19 -2 13 -5z
m-168 -23 c22 -11 35 -19 29 -20 -6 0 -9 -12 -7 -27 3 -16 -2 -36 -10 -47 -13
-17 -21 -18 -113 -9 -66 7 -83 11 -51 12 44 1 48 3 42 22 -9 26 12 77 33 82
29 8 36 7 77 -13z m208 0 c3 -11 1 -20 -4 -20 -5 0 -9 2 -9 4 0 2 -3 11 -6 20
-3 9 -2 16 4 16 5 0 12 -9 15 -20z m-130 -17 c-7 -2 -19 -2 -25 0 -7 3 -2 5
12 5 14 0 19 -2 13 -5z m20 -20 c-7 -2 -19 -2 -25 0 -7 3 -2 5 12 5 14 0 19
-2 13 -5z m12 -43 c18 -20 17 -20 -26 -19 -24 1 -34 4 -21 6 26 5 29 20 5 26
-15 4 -14 5 3 6 11 0 29 -8 39 -19z m-435 0 c0 -6 -6 -13 -14 -16 -12 -5 -15
-41 -13 -216 2 -187 4 -211 20 -222 19 -15 22 -26 7 -26 -6 0 -19 15 -30 33
-18 29 -20 50 -20 210 0 133 4 186 14 212 14 33 36 48 36 25z m542 -50 l5 -30
-76 1 c-63 0 -71 2 -48 11 15 5 27 14 27 19 0 5 6 9 13 9 7 0 18 9 25 20 17
28 48 11 54 -30z m53 0 c-3 -9 -1 -29 5 -44 5 -15 6 -25 1 -21 -6 3 -10 -58
-10 -152 -1 -86 -3 -159 -6 -161 -3 -3 -5 31 -5 76 0 75 -12 108 -23 65 -4
-17 -5 -17 -6 0 0 10 6 20 14 23 10 4 15 21 15 53 l0 46 -65 -3 c-46 -3 -65 0
-65 8 0 8 9 11 24 8 16 -3 28 2 37 14 8 10 26 18 41 18 27 0 28 2 28 51 0 32
4 48 10 44 6 -4 8 -15 5 -25z m-490 10 c4 -6 14 -9 23 -6 48 13 102 17 102 7
0 -7 -22 -11 -52 -11 -49 -1 -51 -2 -34 -15 18 -14 15 -15 -42 -15 l-62 0 12
25 c11 25 42 34 53 15z m324 -6 c2 -2 -17 -4 -42 -4 -26 0 -47 4 -47 9 0 8 79
3 89 -5z m-397 -46 c3 -7 25 -12 55 -12 42 0 48 -2 38 -13 -8 -8 -38 -13 -74
-13 -58 0 -61 1 -61 25 0 18 5 25 19 25 11 0 21 -5 23 -12z m190 -47 c17 -6
45 -11 61 -11 29 0 29 -1 12 -14 -14 -10 -27 -11 -49 -4 -17 5 -39 11 -49 13
-39 9 -57 17 -57 26 0 5 9 9 20 9 12 0 21 7 21 18 1 12 3 11 6 -5 3 -13 16
-26 35 -32z m311 32 c-13 -2 -23 -9 -23 -14 0 -5 -4 -9 -8 -9 -5 0 -9 7 -9 15
0 10 10 15 31 14 24 -1 26 -3 9 -6z m-56 -19 c-3 -3 -12 -4 -19 -1 -8 3 -5 6
6 6 11 1 17 -2 13 -5z m-404 -30 c9 -3 17 -1 17 5 0 6 8 11 18 11 14 0 15 -2
2 -10 -10 -6 -11 -10 -2 -10 6 0 12 -4 12 -10 0 -5 -19 -10 -42 -9 -35 0 -39
2 -23 10 17 8 16 9 -7 6 -17 -3 -33 2 -40 11 -11 13 -9 14 17 8 17 -4 38 -9
48 -12z m142 -34 c-3 -5 -12 -10 -18 -10 -7 0 -6 4 3 10 19 12 23 12 15 0z
m280 0 c4 -6 -5 -10 -20 -10 -15 0 -24 4 -20 10 3 6 12 10 20 10 8 0 17 -4 20
-10z m45 -10 c0 -5 -2 -10 -4 -10 -3 0 -8 5 -11 10 -3 6 -1 10 4 10 6 0 11 -4
11 -10z m-512 -19 c-7 -11 -15 -18 -20 -15 -11 7 3 34 18 34 12 0 12 -4 2 -19z
m508 -38 c-10 -10 -19 5 -10 18 6 11 8 11 12 0 2 -7 1 -15 -2 -18z m-416 -3
c0 -5 -7 -10 -16 -10 -8 0 -12 5 -9 10 3 6 10 10 16 10 5 0 9 -4 9 -10z m117
-5 c0 -8 -4 -15 -9 -15 -4 0 -8 7 -8 15 0 8 4 15 8 15 5 0 9 -7 9 -15z m248 5
c18 -8 17 -9 -7 -9 -16 -1 -28 4 -28 9 0 12 8 12 35 0z m-370 -40 c3 -5 1 -10
-4 -10 -6 0 -11 5 -11 10 0 6 2 10 4 10 3 0 8 -4 11 -10z m87 -62 c43 -18 78
-39 78 -45 0 -7 -4 -13 -10 -13 -5 0 -10 5 -10 11 0 5 -4 8 -9 4 -6 -3 -18 3
-28 14 -19 20 -88 52 -96 44 -3 -2 -8 0 -12 6 -10 17 5 14 87 -21z m354 23
c-3 -5 -15 -7 -26 -4 -28 7 -25 13 6 13 14 0 23 -4 20 -9z m-41 -41 c-3 -5
-12 -10 -18 -10 -7 0 -6 4 3 10 19 12 23 12 15 0z m-63 -22 c-5 -5 -17 -6 -26
-2 -13 5 -14 9 -5 14 16 11 43 0 31 -12z m-77 -28 c-3 -5 -11 -10 -16 -10 -6
0 -7 5 -4 10 3 6 11 10 16 10 6 0 7 -4 4 -10z m-290 -20 c-3 -5 -13 -10 -21
-10 -8 0 -14 -10 -14 -25 0 -16 6 -25 16 -25 8 0 12 -4 9 -10 -3 -5 -15 -10
-26 -10 -15 0 -19 7 -19 38 0 21 3 42 7 45 10 11 55 8 48 -3z m32 -10 c-6 -22
8 -28 16 -7 2 6 7 10 9 7 8 -8 -3 -70 -12 -70 -5 0 -6 10 -2 22 3 14 2 19 -6
14 -7 -4 -12 -14 -12 -22 0 -8 -4 -14 -10 -14 -8 0 -6 41 6 78 6 20 17 13 11
-8z m363 10 c0 -5 -4 -10 -10 -10 -5 0 -10 -12 -9 -27 0 -24 2 -25 8 -9 7 18
8 18 14 2 12 -30 8 -38 -15 -34 -19 2 -24 10 -26 46 -3 37 -1 42 17 42 12 0
21 -4 21 -10z m37 -5 c-4 -8 -1 -17 5 -21 7 -4 6 -10 -3 -16 -11 -7 -11 -11
-1 -15 16 -6 15 -23 -2 -23 -14 0 -26 29 -26 68 0 14 6 22 16 22 10 0 14 -6
11 -15z m63 11 c0 -2 -8 -10 -17 -17 -16 -13 -17 -12 -4 4 13 16 21 21 21 13z
m-380 -53 c0 -29 -3 -34 -10 -23 -9 13 -11 13 -20 0 -7 -12 -10 -8 -10 16 0
34 6 44 27 44 8 0 13 -13 13 -37z m46 -13 c8 0 14 -4 14 -10 0 -5 -9 -10 -20
-10 -17 0 -20 6 -19 38 2 30 3 32 6 10 2 -16 11 -28 19 -28z m44 25 c0 -14 5
-25 10 -25 6 0 10 -4 10 -10 0 -5 -9 -10 -20 -10 -16 0 -20 7 -20 35 0 19 5
35 10 35 6 0 10 -11 10 -25z m60 15 c-10 -6 -11 -10 -2 -10 6 0 12 -5 12 -11
0 -5 -4 -7 -10 -4 -5 3 -10 1 -10 -4 0 -6 5 -11 10 -11 6 0 10 -4 10 -10 0 -5
-9 -10 -20 -10 -16 0 -20 7 -20 35 0 30 3 35 23 35 18 0 19 -2 7 -10z m63 2
c3 7 6 -4 6 -26 1 -32 -1 -36 -13 -27 -11 9 -15 9 -19 -1 -3 -7 -6 4 -6 26 -1
32 1 36 13 27 11 -9 15 -9 19 1z m-99 -117 c-4 -9 -17 -15 -33 -14 -20 1 -22
2 -6 6 11 3 24 9 30 14 13 13 15 11 9 -6z"/>
<path d="M496 725 c-3 -9 0 -15 9 -15 9 0 12 -6 8 -17 -4 -11 -3 -14 5 -9 16
10 15 24 -2 41 -12 12 -15 12 -20 0z"/>
<path d="M480 684 c0 -8 5 -12 10 -9 6 3 10 10 10 16 0 5 -4 9 -10 9 -5 0 -10
-7 -10 -16z"/>
</g>
</svg>
